<?xml version="1.0" encoding="UTF-8" standalone="no"?>
<!-- Created with Inkscape (http://www.inkscape.org/) -->

<svg
   version="1.1"
   id="svg283"
   width="355.20001"
   height="354.13333"
   viewBox="0 0 355.20001 354.13333"
   xmlns="http://www.w3.org/2000/svg"
   xmlns:svg="http://www.w3.org/2000/svg">
  <defs
     id="defs287" />
  <g
     id="layer1">
    <path
       style="display:inline;fill:#363636;stroke-width:1.06667"
       d="m 113.35471,350.89441 c -3.52133,-1.79206 -7.19998,-5.87736 -16.75504,-18.60722 C 82.915895,314.0568 77.318079,308.64517 67.200002,303.86537 53.177739,297.24122 52.858993,296.91071 56.745351,293.02435 59.30109,290.46861 83.82423,282.98474 97.529239,280.5781 c 9.197801,-1.61517 21.772761,-1.36211 28.275511,0.56899 6.57326,1.95205 15.05432,9.22949 18.40102,15.78959 5.2657,10.32161 5.97922,15.91285 2.15821,16.91206 -1.00761,0.2635 -8.05782,0.061 -15.66713,-0.44998 -15.80449,-1.06133 -15.53692,-0.94277 -27.23018,-12.06543 -12.397223,-11.79227 -12.563876,-11.86928 -20.838491,-9.62945 -3.792164,1.0265 -6.894844,2.15036 -6.894844,2.49748 0,0.34713 6.06942,6.89382 13.4876,14.54822 7.418179,7.6544 15.859755,16.43141 18.759055,19.50448 6.27269,6.64862 18.53851,13.14758 26.20433,13.88417 18.03688,1.73312 34.34925,-20.21286 33.0272,-44.4334 -0.65528,-12.00517 -3.64686,-19.70016 -10.62881,-27.33951 -10.37135,-11.34791 -19.03769,-14.02578 -41.36561,-12.78181 -7.32393,0.40804 -14.28393,1.2509 -15.466667,1.87302 -1.182736,0.62212 -4.947901,3.70827 -8.367031,6.8581 -3.419131,3.14984 -7.993578,6.63352 -10.165437,7.74152 -16.111294,8.21937 -39.440954,7.68719 -54.551298,-1.24438 C 21.104901,269.52426 13.989865,262.42777 11.415154,257.6 8.3901531,251.9279 8.4830821,240.11272 11.704596,220.8 14.693319,202.88282 14.308216,195.28961 9.8923164,185.06666 8.1184021,180.96 6.3577938,176.28 5.9798534,174.66667 c -0.6676585,-2.85007 -0.5579047,-2.9331 3.8664914,-2.92511 3.3084672,0.006 7.3691012,1.42308 14.8497412,5.18233 22.650576,11.38264 39.356958,25.48266 43.139636,36.40944 2.395116,6.91863 2.722202,22.82276 0.596416,29.00002 -1.795516,5.21754 -5.18791,9.39998 -7.62435,9.39998 -2.168579,0 -11.711284,-10.14926 -17.827016,-18.96014 l -3.905632,-5.62681 -0.705223,-15.30919 c -0.620733,-13.47504 -0.990736,-15.71015 -3.088331,-18.65595 -2.800089,-3.93236 -7.802044,-6.7803 -11.087116,-6.31263 -2.599648,0.37009 -2.651472,0.96762 -1.277669,14.73139 0.569351,5.70418 0.267486,11.65134 -1.051878,20.72343 -1.028582,7.07265 -1.575517,15.04423 -1.231491,17.94899 1.293508,10.92166 10.662128,25.38049 19.088352,29.45956 11.005046,5.32745 29.768367,0.28596 42.529415,-11.42716 10.648323,-9.7739 16.789581,-24.13766 15.531561,-36.3267 -1.083359,-10.49675 -5.737181,-17.8312 -19.693692,-31.03741 -6.868987,-6.49971 -13.449066,-11.99232 -14.6224,-12.20579 -1.173333,-0.21348 -5.984817,-0.8823 -10.692187,-1.48627 C 36.511107,175.16198 23.236211,168.0364 13.40304,156.11519 1.4672505,141.64487 -1.2939897,130.82118 3.1868391,116.06902 c 1.2989004,-4.27634 3.294306,-9.08498 4.4342347,-10.68587 1.1399287,-1.60088 7.4595802,-6.452947 14.0436692,-10.782372 17.441669,-11.46892 25.135569,-19.773498 31.53662,-34.03974 4.028912,-8.979373 5.446343,-10.078462 8.886243,-6.890472 2.196187,2.035358 3.638307,6.415878 8.164696,24.800707 4.788638,19.45001 5.496329,23.716337 5.489208,33.091687 -0.0075,9.80225 -0.292184,11.33132 -3.189968,17.1303 -3.714398,7.43316 -5.772049,9.53995 -14.355457,14.69828 -7.390601,4.44148 -13.670293,5.14893 -15.491888,1.74525 -0.607307,-1.13476 -1.104196,-7.66222 -1.104196,-14.50546 0,-15.18105 0.554204,-16.53724 11.623334,-28.44344 4.52762,-4.870006 9.044579,-10.041361 10.037685,-11.491897 3.653415,-5.336199 1.320359,-16.029327 -3.497322,-16.029327 -1.131185,0 -3.57918,2.174978 -5.702668,5.066667 -4.701917,6.402899 -15.329204,16.504484 -23.78876,22.611997 -7.76908,5.60902 -12.586961,12.28154 -15.404593,21.33462 -2.816062,9.04802 -2.637916,14.49019 0.693141,21.17476 7.023938,14.0952 29.113384,23.92889 46.491815,20.69704 13.591525,-2.52759 26.626976,-11.47428 33.294131,-22.85092 3.926054,-6.69931 4.718836,-16.95767 2.358117,-30.51343 C 95.751126,100.96852 94.526835,98.137299 87.706891,89.066666 79.255066,77.825604 75.397616,66.349694 75.337138,52.266666 75.275775,37.9772 80.009936,25.126407 88.6467,16.138109 97.672775,6.7446555 102.95589,5.9046723 128.21544,9.8469242 c 19.49109,3.0419718 26.21874,3.0472888 35.03622,0.027694 3.84174,-1.3156268 9.2969,-2.8239601 12.12256,-3.3518517 l 5.13758,-0.9598028 -0.46154,5.5656083 c -0.41402,4.992515 -1.73553,7.479439 -12.83391,24.151852 -20.98434,31.523478 -25.08702,34.835834 -41.85211,33.789897 -7.03512,-0.438906 -10.54122,-1.278139 -15.98776,-3.826882 -9.877924,-4.62244 -9.654773,-6.290496 2.23177,-16.682425 10.82005,-9.459545 13.97972,-10.629666 32.81501,-12.152387 14.65386,-1.184678 17.40214,-2.528193 19.69621,-9.628628 0.79905,-2.473137 1.18025,-4.769173 0.84712,-5.102304 -0.33313,-0.333131 -8.90689,-1.026588 -19.0528,-1.541015 -10.14591,-0.514429 -20.03032,-1.233516 -21.96535,-1.59797 -4.77176,-0.898743 -15.50936,1.343696 -22.04622,4.604125 -18.589458,9.271993 -23.320033,27.110704 -12.606488,47.538303 4.114314,7.844797 13.528548,17.459434 20.655748,21.095462 6.92377,3.532242 16.73028,5.598056 22.77665,4.798068 9.03885,-1.195916 13.87227,-4.128073 25.57752,-15.51641 12.6787,-12.335433 15.01985,-16.531595 16.7002,-29.932654 0.59349,-4.733251 2.03575,-11.162836 3.20501,-14.287967 5.08218,-13.583329 16.23581,-25.983859 28.72248,-31.9334551 5.90043,-2.8114112 8.41826,-3.3591902 16.90084,-3.6769421 16.47164,-0.61701638 19.57195,1.3172036 34.82512,21.7266512 11.61028,15.535072 18.65705,21.844412 31.03027,27.782977 5.46948,2.625095 10.22904,5.233283 10.5768,5.795972 1.4068,2.276246 -1.85871,5.051554 -9.78103,8.312737 -17.52151,7.212653 -34.59895,10.397149 -51.73696,9.647591 -8.46386,-0.37018 -10.81434,-0.885387 -14.86248,-3.257754 -8.54194,-5.005913 -16.22551,-14.796952 -18.09678,-23.060406 -0.64532,-2.849672 -0.37344,-3.99068 1.36516,-5.729277 1.9886,-1.988598 3.18089,-2.132292 14.1947,-1.710715 10.88658,0.416707 12.68237,0.784474 18.98766,3.888559 4.88823,2.406466 8.56132,5.27223 12.3232,9.61462 8.68304,10.02296 17.26707,12.211029 24.27085,6.186633 l 2.80577,-2.413415 -10.5349,-9.411618 c -5.79418,-5.17639 -13.17489,-12.442855 -16.40155,-16.147699 -9.7982,-11.250254 -19.17638,-17.459087 -29.81857,-19.741431 -12.01106,-2.575907 -24.37812,5.172312 -31.60948,19.803985 -8.98688,18.183708 -4.90462,41.277671 9.84142,55.674409 7.989,7.799765 12.96439,9.145374 32.13597,8.691284 16.42162,-0.388957 19.14574,-1.248253 30.10616,-9.496698 12.25078,-9.219526 23.32281,-13.0461 37.87783,-13.090856 14.77343,-0.04543 26.25763,3.978301 35.39595,12.401709 10.05756,9.270733 11.56375,17.391312 7.66131,41.305502 -3.55396,21.77876 -3.31261,28.02852 1.55416,40.2437 4.9002,12.29912 4.92167,13.08963 0.35557,13.08963 -12.17589,0 -38.34878,-15.13957 -53.33562,-30.8517 -8.06103,-8.45116 -9.62584,-12.2638 -9.66487,-23.5483 -0.0364,-10.53264 1.67407,-17.33753 5.25914,-20.92261 4.48047,-4.48047 7.63507,-3.47062 15.57024,4.98432 11.26589,12.00382 12.46499,14.9356 13.31232,32.54876 0.39309,8.17091 1.1456,15.69463 1.67226,16.71938 1.24387,2.42033 8.98575,6.35851 11.66458,5.93361 1.95091,-0.30945 2.124,-1.59924 2.76398,-20.59679 1.14943,-34.12087 1.00794,-37.68947 -1.74352,-43.97552 -1.37223,-3.134995 -4.52335,-7.495454 -7.19894,-9.961718 -14.6028,-13.460392 -34.27905,-12.163781 -51.98996,3.425994 -10.66445,9.387224 -15.66374,20.380904 -15.70318,34.532074 -0.0352,12.6351 2.19611,17.13215 14.47538,29.17401 12.0992,11.86525 18.76267,15.319 34.21787,17.73552 14.70767,2.29962 22.31443,6.13376 32.62515,16.44449 10.34994,10.34993 14.72742,18.8001 15.57787,30.07113 0.85303,11.30512 -1.0513,19.31581 -5.85613,24.63418 -4.63597,5.13145 -13.30523,11.83721 -22.24773,17.20883 -11.63386,6.98828 -19.9478,17.84963 -26.87606,35.11101 -0.64755,1.61333 -1.83524,2.93333 -2.6393,2.93333 -1.66333,0 -10.33856,-17.88721 -12.87132,-26.53902 -2.3183,-7.91921 -4.22986,-32.67971 -3.34397,-43.31462 0.64228,-7.71063 1.14336,-9.29549 4.05606,-12.8291 6.93017,-8.4075 23.58338,-16.56645 26.94741,-13.20243 2.20911,2.20912 3.11686,15.40225 1.64234,23.86956 -1.76132,10.11426 -5.09007,15.9579 -13.77976,24.19049 -8.03048,7.60802 -10.38522,12.47186 -9.11436,18.82616 0.77682,3.88409 3.95345,7.10593 6.16825,6.25603 0.86234,-0.33091 3.22546,-3.19283 5.25136,-6.35982 4.54446,-7.10414 10.42101,-12.91273 16.72686,-16.5334 11.93147,-6.85079 17.73588,-13.63564 22.00067,-25.71684 5.328,-15.09306 1.6755,-25.38272 -12.79611,-36.04854 -16.65105,-12.27213 -39.28182,-11.64951 -55.56191,1.52864 -7.22941,5.85194 -12.81629,13.46305 -14.55815,19.83281 -0.80738,2.95241 -0.97907,9.24128 -0.51242,18.76972 0.80179,16.37216 1.96763,19.97366 9.4323,29.13825 12.02343,14.76154 16.11289,32.43241 11.86162,51.25487 -2.31478,10.24865 -5.31212,16.37371 -10.6035,21.66826 -8.53862,8.54372 -15.72156,9.28201 -50.63286,5.20427 l -16.57037,-1.93547 -9.56297,3.26744 c -5.25964,1.7971 -11.12297,3.59178 -13.02964,3.98819 l -3.46667,0.72072 v -4.7444 c 0,-4.0952 1.13118,-6.51239 8.26667,-17.6649 11.06139,-17.28853 21.37766,-31.83458 25.54725,-36.02186 5.09029,-5.11188 12.07741,-6.35665 24.31942,-4.33256 6.07649,1.00468 11.45657,2.63575 14.65835,4.44396 l 5.05837,2.85669 -3.27753,4.76373 c -9.84585,14.31046 -20.95011,19.5965 -41.1658,19.5965 -10.7469,0 -14.99272,1.9396 -17.96721,8.20786 -3.43338,7.23533 -3.34322,7.25881 27.8789,7.25881 26.30095,0 27.96431,-0.1206 34.95813,-2.53462 9.02165,-3.11397 16.89138,-10.13582 18.67766,-16.66538 5.06929,-18.53018 -6.98952,-41.37096 -27.0854,-51.30289 -6.94406,-3.43194 -9.4302,-4.08783 -17.00103,-4.48519 -5.30532,-0.27847 -10.41861,0.0465 -12.72859,0.80881 -7.97162,2.63088 -25.49812,18.78788 -31.60134,29.13208 -1.26511,2.1442 -3.06151,8.71628 -4.19115,15.33325 -2.44934,14.34725 -5.30225,22.01268 -11.14816,29.95379 -8.84596,12.01638 -22.02126,18.491 -39.06521,19.19742 -8.77988,0.3639 -10.73596,0.11331 -14.64529,-1.87619 z m 114.37863,-42.83133 c 2.72412,-1.45508 10.13333,-9.36077 10.13333,-10.81233 0,-0.26089 -1.63254,-1.24904 -3.62787,-2.19588 -9.07728,-4.30746 -20.97328,-0.36837 -28.43373,9.4152 -2.22877,2.92278 -3.89323,5.5727 -3.69881,5.8887 0.80278,1.30483 22.5303,-0.64154 25.62708,-2.29569 z m -90.69568,-1.88279 c 1.09458,-1.77109 -2.22955,-8.08124 -6.38109,-12.11318 -2.19936,-2.13599 -6.69683,-4.90325 -9.99437,-6.14946 -5.80177,-2.19261 -15.34463,-3.19078 -16.78022,-1.75518 -2.48691,2.48691 7.93429,14.39923 15.28293,17.4697 6.97647,2.91495 16.78203,4.31293 17.87275,2.54812 z m 51.70718,-35.78046 c 13.75287,-15.86296 19.25185,-20.42646 26.40246,-21.91092 10.66697,-2.21445 20.70145,-1.83245 26.79136,1.01991 8.84362,4.14212 8.6614,4.61844 8.41233,-21.98987 -0.27241,-29.10224 -0.62449,-28.31066 18.71568,-42.07834 5.72,-4.0719 10.4,-7.92497 10.4,-8.56238 0,-1.21305 -2.51361,-3.75544 -19.32371,-19.5449 -8.62102,-8.09759 -10.57964,-10.56613 -12.51508,-15.77334 -3.07699,-8.27852 -3.14849,-20.91453 -0.16121,-28.49332 1.17334,-2.97677 2.13334,-6.29174 2.13334,-7.36659 0,-2.81165 -5.93832,-3.49777 -17.9867,-2.07824 -26.44451,3.11568 -39.32541,-2.54118 -49.96302,-21.942091 -2.22766,-4.062805 -4.5915,-7.56321 -5.25298,-7.778678 -0.66149,-0.215468 -4.58265,3.846634 -8.7137,9.026893 -13.42018,16.828663 -21.49675,22.894956 -32.48767,24.401436 -4.17195,0.57183 -18.32523,-0.68776 -26.66342,-2.37293 l -2.93417,-0.593 0.0519,21.10978 0.0519,21.10978 -3.80825,7.70548 c -4.933119,9.98148 -11.163078,15.61349 -19.520985,17.64736 -9.213809,2.24213 -8.858022,3.97476 3.166125,15.41851 16.17486,15.39411 18.10169,17.575 21.01434,23.78513 3.68422,7.85521 3.7612,19.7575 0.19212,29.70314 -1.32423,3.69014 -2.13512,7.41965 -1.80197,8.28781 0.50936,1.32736 3.87641,1.5481 21.16442,1.38745 19.28008,-0.17915 20.90642,-0.0399 26.14978,2.23971 6.63204,2.88331 10.75603,7.20341 17.86556,18.71516 2.89648,4.68997 5.72013,8.84281 6.27477,9.22853 1.82341,1.26805 3.60472,-0.21817 12.34675,-10.30148 z M 166.93334,198.017 c -4.05755,-1.90056 -9.66339,-7.78426 -11.13458,-11.68644 -2.99119,-7.9339 -0.097,-20.43381 5.80649,-25.07745 10.10498,-7.94858 29.59591,-3.67256 34.72173,7.61744 4.66044,10.26493 1.29625,23.83208 -6.90192,27.83421 -5.4136,2.64278 -18.07416,3.38144 -22.49172,1.31224 z m 18.94943,-8.39276 c 3.14285,-2.19413 5.74445,-6.39283 6.12862,-9.89091 0.55366,-5.04154 -0.24385,-7.26516 -4.08117,-11.37896 -3.48673,-3.73797 -4.82386,-4.42817 -9.33333,-4.81776 -12.80423,-1.10622 -21.7242,11.43871 -15.44997,21.72865 4.49109,7.36553 15.42628,9.46207 22.73585,4.35898 z m 109.80667,56.30395 c 4.69,-3.86853 7.39592,-6.98217 8.11119,-9.33333 1.43184,-4.70661 2.53415,-20.06153 1.4402,-20.06153 -1.54356,0 -10.62363,6.90286 -12.91968,9.8218 -1.22841,1.56168 -2.9432,4.85099 -3.81064,7.30958 -1.65853,4.70077 -2.18977,18.06862 -0.71804,18.06862 0.47252,0 4.02615,-2.61232 7.89697,-5.80514 z M 61.397084,235.53248 c 0.407464,-1.28381 0.768901,-5.31668 0.803195,-8.96194 0.07871,-8.36608 -3.345866,-15.49845 -9.808108,-20.42736 -2.506908,-1.91209 -4.95761,-3.47652 -5.446004,-3.47652 -0.488396,0 -1.221688,4.00598 -1.629537,8.90217 -0.780459,9.3693 0.01554,12.35478 4.998662,18.74794 1.988532,2.55121 8.2003,7.39611 9.612829,7.49759 0.400466,0.0288 1.0615,-0.99808 1.468963,-2.28188 z M 308.79658,130.28383 c -0.83773,-3.35187 -11.011,-14.01716 -13.37051,-14.01716 -2.49469,0 -3.1594,2.10625 -3.1594,10.01113 0,8.95533 3.70105,16.38101 11.07036,22.21128 l 5.46298,4.32204 0.31271,-10.00555 c 0.172,-5.50306 0.0298,-11.13785 -0.31614,-12.52174 z m -252.653464,3.13633 c 8.514571,-5.19193 15.071626,-21.5116 11.139068,-27.72371 -1.936848,-3.05957 -12.412088,3.43772 -15.65593,9.71062 -2.363265,4.57005 -3.3305,17.85054 -1.389575,19.07937 2.016068,1.27641 2.084897,1.26398 5.906437,-1.06628 z M 251.31121,66.568349 c 1.97312,-0.529662 1.26097,-1.539448 -5.88927,-8.350624 -4.4736,-4.261457 -9.32364,-8.385031 -10.77788,-9.163498 -2.42628,-1.298824 -15.51868,-1.868497 -16.66217,-0.725003 -1.06724,1.06724 1.02307,5.99511 4.15441,9.793979 4.60495,5.586594 12.47623,9.057027 20.53037,9.051811 3.52,-0.0022 7.41004,-0.275279 8.64454,-0.606665 z M 136.33542,59.834301 c 5.36784,-2.738465 14.23245,-12.289035 13.40582,-14.443186 -0.50821,-1.324392 -2.51209,-1.657782 -9.96429,-1.657782 -7.92123,0 -9.86799,0.36381 -12.90756,2.412176 -4.37503,2.948331 -11.03679,11.458399 -9.85915,12.594561 1.28381,1.238587 7.85416,2.921338 11.83226,3.030396 1.93004,0.05291 5.30186,-0.818364 7.49292,-1.936165 z"
       id="path293" />
  </g>
</svg>
